<?xml version="1.0" encoding="UTF-8"?>
<svg width="3px" height="15px" viewBox="0 0 3 15" version="1.1" xmlns="http://www.w3.org/2000/svg" xmlns:xlink="http://www.w3.org/1999/xlink">
    <!-- Generator: Sketch 53.1 (72631) - https://sketchapp.com -->
    <title>Icons White / Notifications Icon Copy 25</title>
    <desc>Created with Sketch.</desc>
    <g id="UI-Kit" stroke="none" stroke-width="1" fill="none" fill-rule="evenodd">
        <g id="UI-Elements" transform="translate(-483.000000, -610.000000)" fill="#70889E">
            <g id="Group-6" transform="translate(77.000000, 562.000000)">
                <g id="Group-5">
                    <g id="Atoms-/-icons-/-Options" transform="translate(396.000000, 44.000000)">
                        <path d="M13,5.5 C13,4.675 12.325,4 11.5,4 C10.675,4 10,4.675 10,5.5 C10,6.325 10.675,7 11.5,7 C12.325,7 13,6.325 13,5.5 Z M10,11.5 C10,12.325 10.675,13 11.5,13 C12.325,13 13,12.325 13,11.5 C13,10.675 12.325,10 11.5,10 C10.675,10 10,10.675 10,11.5 Z M10,17.5 C10,18.325 10.675,19 11.5,19 C12.325,19 13,18.325 13,17.5 C13,16.675 12.325,16 11.5,16 C10.675,16 10,16.675 10,17.5 Z" id="Shape"></path>
                    </g>
                </g>
            </g>
        </g>
    </g>
</svg>