<?xml version="1.0" encoding="UTF-8"?>
<svg width="18px" height="18px" viewBox="0 0 18 18" version="1.1" xmlns="http://www.w3.org/2000/svg" xmlns:xlink="http://www.w3.org/1999/xlink">
    <!-- Generator: Sketch 53.1 (72631) - https://sketchapp.com -->
    <title>Icons White / Notifications Icon Copy 9</title>
    <desc>Created with Sketch.</desc>
    <defs>
        <path d="M12.0020436,15.15 C10.2163152,15.15 8.76367599,13.737 8.76367599,12 C8.76367599,10.263 10.2163152,8.85 12.0020436,8.85 C13.7877721,8.85 15.2404113,10.263 15.2404113,12 C15.2404113,13.737 13.7877721,15.15 12.0020436,15.15 L12.0020436,15.15 Z M18.8766355,12.882 C18.9136455,12.594 18.9414029,12.306 18.9414029,12 C18.9414029,11.694 18.9136455,11.406 18.8766355,11.118 L20.8289086,9.633 C21.0047057,9.498 21.0509681,9.255 20.9399384,9.057 L19.0894426,5.943 C18.9784128,5.745 18.7285959,5.673 18.5250413,5.745 L16.2211741,6.645 C15.7400452,6.285 15.2219063,5.988 14.6575051,5.763 L14.3059109,3.378 C14.2781535,3.162 14.0838514,3 13.8525394,3 L10.1515478,3 C9.92023586,3 9.7259338,3.162 9.69817637,3.378 L9.34658216,5.763 C8.78218094,5.988 8.26404212,6.294 7.78291321,6.645 L5.47904594,5.745 C5.26623892,5.664 5.02567447,5.745 4.91464472,5.943 L3.06414892,9.057 C2.94386669,9.255 2.99938157,9.498 3.17517867,9.633 L5.12745174,11.118 C5.09044182,11.406 5.06268439,11.703 5.06268439,12 C5.06268439,12.297 5.09044182,12.594 5.12745174,12.882 L3.17517867,14.367 C2.99938157,14.502 2.95311917,14.745 3.06414892,14.943 L4.91464472,18.057 C5.02567447,18.255 5.2754914,18.327 5.47904594,18.255 L7.78291321,17.355 C8.26404212,17.715 8.78218094,18.012 9.34658216,18.237 L9.69817637,20.622 C9.7259338,20.838 9.92023586,21 10.1515478,21 L13.8525394,21 C14.0838514,21 14.2781535,20.838 14.3059109,20.622 L14.6575051,18.237 C15.2219063,18.012 15.7400452,17.706 16.2211741,17.355 L18.5250413,18.255 C18.7378483,18.336 18.9784128,18.255 19.0894426,18.057 L20.9399384,14.943 C21.0509681,14.745 21.0047057,14.502 20.8289086,14.367 L18.8766355,12.882 Z" id="path-1"></path>
    </defs>
    <g id="UI-Kit" stroke="none" stroke-width="1" fill="none" fill-rule="evenodd">
        <g id="UI-Elements" transform="translate(-476.000000, -565.000000)">
            <g id="Group-6" transform="translate(77.000000, 562.000000)">
                <g id="Atoms-/-icons-/-Glyph-//-Settings-Icon" transform="translate(396.000000, 0.000000)">
                    <mask id="mask-2" fill="white">
                        <use xlink:href="#path-1"></use>
                    </mask>
                    <use id="Mask" fill="#FFFFFF" fill-rule="evenodd" xlink:href="#path-1"></use>
                    <g id="Atoms-/-Colors-/-Gray_Medium" mask="url(#mask-2)" fill="#657D95" fill-rule="evenodd">
                        <rect id="Rectangle-Copy-3" x="0" y="0" width="24" height="24"></rect>
                    </g>
                </g>
            </g>
        </g>
    </g>
</svg>