<?xml version="1.0" encoding="UTF-8"?>
<svg width="20px" height="16px" viewBox="0 0 20 16" version="1.1" xmlns="http://www.w3.org/2000/svg" xmlns:xlink="http://www.w3.org/1999/xlink">
    <!-- Generator: Sketch 53.1 (72631) - https://sketchapp.com -->
    <title>Icons White / Notifications Icon Copy 26</title>
    <desc>Created with Sketch.</desc>
    <defs>
        <path d="M2,20 L22,20 L22,16 L2,16 L2,20 L2,20 Z M4,17 L6,17 L6,19 L4,19 L4,17 L4,17 Z M2,4 L2,8 L22,8 L22,4 L2,4 L2,4 Z M6,7 L4,7 L4,5 L6,5 L6,7 L6,7 Z M2,14 L22,14 L22,10 L2,10 L2,14 L2,14 Z M4,11 L6,11 L6,13 L4,13 L4,11 L4,11 Z" id="path-1"></path>
    </defs>
    <g id="UI-Kit" stroke="none" stroke-width="1" fill="none" fill-rule="evenodd">
        <g id="UI-Elements" transform="translate(-519.000000, -610.000000)">
            <g id="Group-6" transform="translate(77.000000, 562.000000)">
                <g id="Group-5">
                    <g id="Atoms-/-icons-/-Storage" transform="translate(440.000000, 44.000000)">
                        <mask id="mask-2" fill="white">
                            <use xlink:href="#path-1"></use>
                        </mask>
                        <use id="Mask" fill="#44556B" fill-rule="evenodd" xlink:href="#path-1"></use>
                        <g id="Atoms-/-Colors-/-Gray_Medium" mask="url(#mask-2)" fill="#657D95" fill-rule="evenodd">
                            <rect id="Rectangle-Copy-3" x="0" y="0" width="24" height="24"></rect>
                        </g>
                    </g>
                </g>
            </g>
        </g>
    </g>
</svg>