<?xml version="1.0" encoding="UTF-8"?>
<svg width="20px" height="20px" viewBox="0 0 20 20" version="1.1" xmlns="http://www.w3.org/2000/svg" xmlns:xlink="http://www.w3.org/1999/xlink">
    <!-- Generator: Sketch 53.1 (72631) - https://sketchapp.com -->
    <title>Icons White / Notifications Icon Copy 3</title>
    <desc>Created with Sketch.</desc>
    <defs>
        <path d="M12,2 C6.47,2 2,6.47 2,12 C2,17.53 6.47,22 12,22 C17.53,22 22,17.53 22,12 C22,6.47 17.53,2 12,2 L12,2 Z M17,15.59 L15.59,17 L12,13.41 L8.41,17 L7,15.59 L10.59,12 L7,8.41 L8.41,7 L12,10.59 L15.59,7 L17,8.41 L13.41,12 L17,15.59 L17,15.59 Z" id="path-1"></path>
    </defs>
    <g id="UI-Kit" stroke="none" stroke-width="1" fill="none" fill-rule="evenodd">
        <g id="UI-Elements" transform="translate(-211.000000, -564.000000)">
            <g id="Group-6" transform="translate(77.000000, 562.000000)">
                <g id="Atoms-/-icons-/-Glyph-//-Cancel" transform="translate(132.000000, 0.000000)">
                    <mask id="mask-2" fill="white">
                        <use xlink:href="#path-1"></use>
                    </mask>
                    <use id="Mask" fill-opacity="0.7" fill="#000000" fill-rule="evenodd" xlink:href="#path-1"></use>
                    <g id="Atoms-/-Colors-/-Gray_Medium" mask="url(#mask-2)" fill="#657D95" fill-rule="evenodd">
                        <rect id="Rectangle-Copy-3" x="0" y="0" width="24" height="24"></rect>
                    </g>
                </g>
            </g>
        </g>
    </g>
</svg>