<?xml version="1.0" encoding="UTF-8"?>
<svg width="18px" height="12px" viewBox="0 0 18 12" version="1.1" xmlns="http://www.w3.org/2000/svg" xmlns:xlink="http://www.w3.org/1999/xlink">
    <!-- Generator: Sketch 53.1 (72631) - https://sketchapp.com -->
    <title>Icons White / Notifications Icon Copy 24</title>
    <desc>Created with Sketch.</desc>
    <defs>
        <path d="M20.0066023,18 C20.5552407,18 21,17.5561352 21,17 L21,17 C21,16.4477153 20.5550537,16 20.0066023,16 L3.99339768,16 C3.44475929,16 3,16.4438648 3,17 L3,17 C3,17.5522847 3.44494629,18 3.99339768,18 L20.0066023,18 Z M20.0066023,13 C20.5552407,13 21,12.5561352 21,12 L21,12 C21,11.4477153 20.5550537,11 20.0066023,11 L3.99339768,11 C3.44475929,11 3,11.4438648 3,12 L3,12 C3,12.5522847 3.44494629,13 3.99339768,13 L20.0066023,13 Z M3,7 C3,7.55228475 3.44494629,8 3.99339768,8 L20.0066023,8 C20.5552407,8 21,7.55613518 21,7 L21,7 C21,6.44771525 20.5550537,6 20.0066023,6 L3.99339768,6 C3.44475929,6 3,6.44386482 3,7 L3,7 Z" id="path-1"></path>
    </defs>
    <g id="UI-Kit" stroke="none" stroke-width="1" fill="none" fill-rule="evenodd">
        <g id="UI-Elements" transform="translate(-432.000000, -612.000000)">
            <g id="Group-6" transform="translate(77.000000, 562.000000)">
                <g id="Group-5">
                    <g id="Atoms-/-icons-/-Menu" transform="translate(352.000000, 44.000000)">
                        <mask id="mask-2" fill="white">
                            <use xlink:href="#path-1"></use>
                        </mask>
                        <use id="Mask" fill="#3E4E6C" fill-rule="evenodd" xlink:href="#path-1"></use>
                        <g id="Atoms-/-Colors-/-Gray_Medium" mask="url(#mask-2)" fill="#657D95" fill-rule="evenodd">
                            <rect id="Rectangle-Copy-3" x="0" y="0" width="24" height="24"></rect>
                        </g>
                    </g>
                </g>
            </g>
        </g>
    </g>
</svg>