<?xml version="1.0" encoding="UTF-8"?>
<svg width="70px" height="70px" viewBox="0 0 70 70" version="1.1" xmlns="http://www.w3.org/2000/svg" xmlns:xlink="http://www.w3.org/1999/xlink">
    <!-- Generator: Sketch 53.1 (72631) - https://sketchapp.com -->
    <title>Atoms / Icon/illustrated/ Camera_OFF Copy 3</title>
    <desc>Created with Sketch.</desc>
    <g id="UI-Kit" stroke="none" stroke-width="1" fill="none" fill-rule="evenodd">
        <g id="UI-Elements" transform="translate(-482.000000, -1544.000000)" fill="#44556B">
            <g id="Atoms-/-Icons-Copy" transform="translate(77.000000, 1395.000000)">
                <g id="Atoms-/-icons-/illustrated/-Money_OFF" transform="translate(390.000000, 134.000000)">
                    <path d="M50,85 C30.6700338,85 15,69.3299662 15,50 C15,30.6700338 30.6700338,15 50,15 C69.3299662,15 85,30.6700338 85,50 C85,69.3299662 69.3299662,85 50,85 Z M51.140625,31.6816406 C51.140625,30.5605413 50.7031294,30 49.828125,30 C48.9667926,30 48.5361328,30.574213 48.5361328,31.7226562 L48.5361328,33.8964844 C45.7060405,34.1425794 43.542488,35.0175706 42.0454102,36.5214844 C40.5483324,38.0253981 39.7998047,39.9531132 39.7998047,42.3046875 C39.7998047,44.109384 40.1826134,45.5859318 40.9482422,46.734375 C41.713871,47.8828182 42.7119079,48.7680633 43.9423828,49.3901367 C45.1728577,50.0122101 46.7040924,50.5761693 48.5361328,51.0820312 L48.5361328,60.6181641 C47.6201126,60.3583971 46.8852567,59.9824243 46.331543,59.4902344 C45.7778293,58.9980444 45.3642592,58.4545928 45.0908203,57.8598633 C44.8173814,57.2651337 44.4960956,56.4072322 44.1269531,55.2861328 C43.9628898,54.766599 43.6689474,54.3632827 43.2451172,54.0761719 C42.8212869,53.7890611 42.3017609,53.6455078 41.6865234,53.6455078 C40.9208946,53.6455078 40.2817408,53.9086888 39.769043,54.4350586 C39.2563451,54.9614284 39,55.5527311 39,56.2089844 C39,57.0976607 39.1914043,58.0034134 39.5742188,58.9262695 C39.9570332,59.8491257 40.5483358,60.7377887 41.3481445,61.5922852 C42.1479532,62.4467816 43.1459901,63.1611299 44.3422852,63.7353516 C45.5385802,64.3095732 46.9365154,64.685546 48.5361328,64.8632812 L48.5361328,68.4003906 C48.5361328,69.0293 48.6352529,69.4941391 48.8334961,69.7949219 C49.0317393,70.0957046 49.3769507,70.2460938 49.8691406,70.2460938 C50.4023464,70.2460938 50.7475578,70.0615253 50.9047852,69.6923828 C51.0620125,69.3232403 51.140625,68.7353556 51.140625,67.9287109 L51.140625,64.8222656 C53.0957129,64.6582023 54.7841726,64.1455121 56.2060547,63.2841797 C57.6279368,62.4228473 58.7045862,61.3120185 59.4360352,59.9516602 C60.1674841,58.5913018 60.5332031,57.1318437 60.5332031,55.5732422 C60.5332031,54.3290953 60.3042015,53.1840873 59.8461914,52.1381836 C59.3881813,51.0922799 58.7353558,50.1933631 57.8876953,49.4414062 C57.0947226,48.7167933 56.1958058,48.1630879 55.190918,47.7802734 C54.1860301,47.397459 52.835946,46.9736351 51.140625,46.5087891 L51.140625,37.9775391 C52.8632899,38.5380887 53.9501931,39.672843 54.4013672,41.3818359 C54.7978535,42.8310619 55.6660089,43.5556641 57.0058594,43.5556641 C57.7168004,43.5556641 58.3217748,43.3061548 58.8208008,42.8071289 C59.3198267,42.308103 59.5693359,41.7168003 59.5693359,41.0332031 C59.5693359,40.4179657 59.4018571,39.7412146 59.0668945,39.0029297 C58.7319319,38.2646447 58.256839,37.5468785 57.6416016,36.8496094 C56.8623008,35.9335892 55.9497123,35.2500023 54.9038086,34.7988281 C53.8579049,34.347654 52.6035229,34.0468758 51.140625,33.8964844 L51.140625,31.6816406 Z M48.5361328,45.75 C47.3056579,45.2988259 46.3896514,44.7963895 45.7880859,44.2426758 C45.1865204,43.6889621 44.8857422,42.8720757 44.8857422,41.7919922 C44.8857422,40.6572209 45.207028,39.8095731 45.8496094,39.2490234 C46.4921907,38.6884738 47.3876896,38.2373064 48.5361328,37.8955078 L48.5361328,45.75 Z M51.140625,51.8408203 C52.5625071,52.2919944 53.6391565,52.8422819 54.3706055,53.4916992 C55.1020544,54.1411165 55.4677734,55.0605409 55.4677734,56.25 C55.4677734,57.3574274 55.0918006,58.3281208 54.3398438,59.1621094 C53.5878869,59.9960979 52.5214913,60.5498033 51.140625,60.8232422 L51.140625,51.8408203 Z" id="Combined-Shape"></path>
                </g>
            </g>
        </g>
    </g>
</svg>