<?xml version="1.0" encoding="UTF-8"?>
<svg width="70px" height="44px" viewBox="0 0 70 44" version="1.1" xmlns="http://www.w3.org/2000/svg" xmlns:xlink="http://www.w3.org/1999/xlink">
    <!-- Generator: Sketch 53.1 (72631) - https://sketchapp.com -->
    <title>Atoms / Icon/illustrated/ Camera_OFF Copy 10</title>
    <desc>Created with Sketch.</desc>
    <g id="UI-Kit" stroke="none" stroke-width="1" fill="none" fill-rule="evenodd">
        <g id="UI-Elements" transform="translate(-352.000000, -1557.000000)">
            <g id="Atoms-/-Icons-Copy" transform="translate(77.000000, 1395.000000)">
                <g id="Atoms-/-icons-/illustrated/wifi-Copy" transform="translate(260.000000, 134.000000)">
                    <rect id="Rectangle-5" x="0" y="0" width="100" height="100"></rect>
                    <g id="Icon/Two-color/Wifi" stroke-width="1" fill-rule="evenodd" transform="translate(15.000000, 28.000000)" fill="#44556B">
                        <path d="M35,27.75 C30.758875,27.75 26.596375,29.595375 23.7543125,32.740375 C23.4477585,33.0411045 23.3331253,33.4869588 23.4566109,33.8982554 C23.5800965,34.309552 23.921357,34.6185311 24.342862,34.7006719 C24.764367,34.7828127 25.1966749,34.6245828 25.4655625,34.28975 C27.854375,31.64425 31.4364375,30.057875 35,30.057875 C38.56125,30.057875 42.145625,31.64425 44.532125,34.28975 C44.8010126,34.6245828 45.2333205,34.7828127 45.6548255,34.7006719 C46.0763305,34.6185311 46.417591,34.309552 46.5410766,33.8982554 C46.6645622,33.4869588 46.549929,33.0411045 46.243375,32.740375 C43.4059375,29.595375 39.2434375,27.75 35,27.75 Z" id="Shape" fill-rule="nonzero"></path>
                        <path d="M35,13.875 C25.9928125,13.875 17.1821875,18.5115625 12.083125,25.932375 C11.836331,26.272483 11.7934864,26.7197115 11.9712193,27.1004893 C12.1489523,27.4812671 12.5192795,27.7356424 12.9384755,27.764891 C13.3576714,27.7941396 13.7597355,27.5936565 13.988625,27.24125 C18.63675,20.4795 26.790625,16.1875 35,16.1875 C43.209375,16.1875 51.3655625,20.4795 56.011375,27.24125 C56.2402645,27.5936565 56.6423286,27.7941396 57.0615245,27.764891 C57.4807205,27.7356424 57.8510477,27.4812671 58.0287807,27.1004893 C58.2065136,26.7197115 58.163669,26.272483 57.916875,25.932375 C52.8178125,18.50925 44.0071875,13.875 35,13.875 Z" id="Path"></path>
                        <path d="M35,0 C21.804875,0 8.799375,6.2738125 0.59,16.599125 C0.308534393,16.9201271 0.22685673,17.3701074 0.37755121,17.7695525 C0.528245689,18.1689976 0.88678794,18.4529008 1.31014238,18.5080027 C1.73349681,18.5631047 2.15276575,18.380438 2.4006875,18.032875 C10.1545,8.283375 22.5425625,2.307875 35.0069375,2.307875 C47.4713125,2.307875 59.859375,8.283375 67.6131875,18.032875 C67.8586936,18.386793 68.280577,18.5749061 68.7079246,18.521006 C69.1352723,18.4671059 69.4972339,18.1801286 69.6471719,17.7763343 C69.7971098,17.37254 69.7101658,16.9188739 69.4215625,16.599125 C61.20525,6.2738125 48.204375,0 35.004625,0 L35,0 Z" id="Path"></path>
                        <path d="M37.3125,41.625 C37.3125,42.9021585 36.2771585,43.9375 35,43.9375 C33.7228415,43.9375 32.6875,42.9021585 32.6875,41.625 C32.6875,40.3478415 33.7228415,39.3125 35,39.3125 C36.2771585,39.3125 37.3125,40.3478415 37.3125,41.625 Z" id="Path"></path>
                    </g>
                </g>
            </g>
        </g>
    </g>
</svg>