<?xml version="1.0" encoding="UTF-8"?>
<svg width="47px" height="68px" viewBox="0 0 47 68" version="1.1" xmlns="http://www.w3.org/2000/svg" xmlns:xlink="http://www.w3.org/1999/xlink">
    <!-- Generator: Sketch 53.1 (72631) - https://sketchapp.com -->
    <title>Atoms / Icon/illustrated/ Camera_OFF Copy 7</title>
    <desc>Created with Sketch.</desc>
    <g id="UI-Kit" stroke="none" stroke-width="1" fill="none" fill-rule="evenodd">
        <g id="UI-Elements" transform="translate(-623.000000, -1545.000000)">
            <g id="Atoms-/-Icons-Copy" transform="translate(77.000000, 1395.000000)">
                <g id="Atoms-/-icons-/illustrated/-Temperature_OFF" transform="translate(520.000000, 134.000000)">
                    <rect id="Rectangle-5" x="0" y="0" width="100" height="100"></rect>
                    <path d="M59.3748439,59.3639121 C62.908567,61.9219307 65,66.0020667 65,70.4018134 C65,74.2643421 63.3597045,77.959132 60.5010001,80.5375513 C58.0180562,82.7770926 54.7914667,84 51.4669994,84 C50.9663605,84 50.4634715,83.9727991 49.9605826,83.9161305 C43.7897863,83.2259075 38.7968977,78.2152738 38.0903781,72.0021334 C37.5256124,67.0357012 39.636171,62.249475 43.6244067,59.3639121 L43.6244067,23.9335978 C43.6244067,19.5599187 47.1570048,16 51.4996253,16 C55.8422458,16 59.3748439,19.5599187 59.3748439,23.9335978 L59.3748439,59.3639121 Z M31.5,48 L35.3896,52.1020882 C36.428,53.1972158 37,54.6531323 37,56.2030162 C37,57.7529002 36.428,59.2088167 35.3896,60.3039443 C34.3171,61.4350348 32.9091,62 31.5,62 C30.0909,62 28.6829,61.4350348 27.6104,60.3039443 C26.572,59.2088167 26,57.7529002 26,56.2030162 C26,54.6531323 26.572,53.1972158 27.6104,52.1020882 L31.5,48 Z M33.8342,58.6635731 C34.4568,58.0069606 34.8,57.1334107 34.8,56.2030162 C34.8,55.2726218 34.4568,54.3990719 33.8342,53.7424594 L31.5,51.2807425 L29.1658,53.7424594 C28.5432,54.3990719 28.2,55.2726218 28.2,56.2030162 C28.2,57.1334107 28.5432,58.0069606 29.1669,58.6635731 C30.4539,60.0208817 32.5472,60.0197216 33.8342,58.6635731 Z M67.5,30 C64.4624339,30 62,27.5375661 62,24.5 C62,21.4624339 64.4624339,19 67.5,19 C70.5375661,19 73,21.4624339 73,24.5 C73,27.5375661 70.5375661,30 67.5,30 Z M67.5,28 C69.4329966,28 71,26.4329966 71,24.5 C71,22.5670034 69.4329966,21 67.5,21 C65.5670034,21 64,22.5670034 64,24.5 C64,26.4329966 65.5670034,28 67.5,28 Z M62,31 L73,31 L73,33 L62,33 L62,31 Z M52.6,64.863625 L52.6,23.125 C52.6,22.502875 52.1072,22 51.5,22 C50.8928,22 50.4,22.502875 50.4,23.125 L50.4,64.863625 C47.8898,65.3845 46,67.653625 46,70.375 C46,73.481125 48.4629,76 51.5,76 C54.5371,76 57,73.481125 57,70.375 C57,67.653625 55.1102,65.3845 52.6,64.863625 Z" id="Combined-Shape" fill="#44556B" fill-rule="nonzero"></path>
                </g>
            </g>
        </g>
    </g>
</svg>