<?xml version="1.0" encoding="UTF-8"?>
<svg width="49px" height="60px" viewBox="0 0 49 60" version="1.1" xmlns="http://www.w3.org/2000/svg" xmlns:xlink="http://www.w3.org/1999/xlink">
    <!-- Generator: Sketch 53.1 (72631) - https://sketchapp.com -->
    <title>Atoms / Icon/illustrated/ Camera_OFF Copy 5</title>
    <desc>Created with Sketch.</desc>
    <g id="UI-Kit" stroke="none" stroke-width="1" fill="none" fill-rule="evenodd">
        <g id="UI-Elements" transform="translate(-623.000000, -1417.000000)">
            <g id="Atoms-/-Icons-Copy" transform="translate(77.000000, 1395.000000)">
                <g id="Atoms-/-icons-/illustrated/-Security_OFF" transform="translate(520.000000, 2.000000)">
                    <rect id="Rectangle-5" x="0" y="0" width="100" height="100"></rect>
                    <path d="M68.2222222,42.3477778 C72.0011111,42.9988889 74.8888889,46.2922222 74.8888889,50.2544444 L74.8888889,71.9677778 C74.8888889,76.3966667 71.2855556,80 66.8566667,80 L34.0322222,80 C29.6033333,80 26,76.3966667 26,71.9688889 L26,50.2555556 C26,46.2922222 28.8877778,42.9988889 32.6666667,42.3477778 L32.6666667,36.1111111 C32.6666667,27.2277778 40.6422222,20 50.4444444,20 C60.2466667,20 68.2222222,27.2277778 68.2222222,36.1111111 L68.2222222,42.3477778 Z M34.8888889,36.1111111 L34.8888889,42.2222222 L66,42.2222222 L66,36.1111111 C66,28.4522222 59.0222222,22.2222222 50.4444444,22.2222222 C41.8666667,22.2222222 34.8888889,28.4522222 34.8888889,36.1111111 Z M50.4444444,51.1111111 C47.9933333,51.1111111 46,53.1044444 46,55.5555556 L46,62.2222222 C46,64.6733333 47.9933333,66.6666667 50.4444444,66.6666667 C52.8955556,66.6666667 54.8888889,64.6733333 54.8888889,62.2222222 L54.8888889,55.5555556 C54.8888889,53.1044444 52.8955556,51.1111111 50.4444444,51.1111111 Z" id="Combined-Shape" fill="#44556B" fill-rule="nonzero"></path>
                </g>
            </g>
        </g>
    </g>
</svg>