<?xml version="1.0" encoding="UTF-8"?>
<svg width="57px" height="68px" viewBox="0 0 57 68" version="1.1" xmlns="http://www.w3.org/2000/svg" xmlns:xlink="http://www.w3.org/1999/xlink">
    <!-- Generator: Sketch 53.1 (72631) - https://sketchapp.com -->
    <title>Atoms / Icon/illustrated/ Camera_OFF</title>
    <desc>Created with Sketch.</desc>
    <g id="UI-Kit" stroke="none" stroke-width="1" fill="none" fill-rule="evenodd">
        <g id="UI-Elements" transform="translate(-99.000000, -1411.000000)">
            <g id="Atoms-/-Icons-Copy" transform="translate(77.000000, 1395.000000)">
                <g id="Atoms-/-icons-/illustrated/-Camera_OFF">
                    <rect id="Rectangle-5" x="0" y="0" width="100" height="100"></rect>
                    <g id="002-webcam-1-copy" stroke-width="1" fill-rule="evenodd" transform="translate(22.000000, 16.000000)" fill="#44556B">
                        <path d="M56.0570581,27.9789331 C56.0570581,41.903715 45.831766,53.4834487 32.4959687,55.6078081 L32.4959687,58.5314757 L41.9681373,60.4259619 C42.9805242,60.628413 43.7155413,61.5249449 43.7155413,62.5575377 L43.7155413,65.0037459 C43.7155413,66.2024457 42.7404169,67.1775701 41.5417171,67.1775701 L14.6145329,67.1775701 C13.4158331,67.1775701 12.4407087,66.2024457 12.4407087,65.0037459 L12.4407087,62.5576689 C12.4407087,61.5249449 13.175857,60.628413 14.1883751,60.4260931 L23.6604125,58.5316069 L23.6604125,55.6079393 C10.324484,53.4834487 0.0991918808,41.9035838 0.0991918808,27.9789331 C0.0991918808,12.5513155 12.6503762,0 28.078125,0 C43.5058738,0 56.0570581,12.5513155 56.0570581,27.9789331 Z M25.7640414,58.3421452 L30.3922086,58.3421452 L30.3922086,55.8615609 C29.628851,55.9241462 28.8573586,55.9578662 28.078125,55.9578662 C27.2988914,55.9578662 26.527399,55.9244087 25.7640414,55.8615609 L25.7640414,58.3421452 Z M28.078125,15.7074804 C21.3115593,15.7074804 15.8066723,21.2123674 15.8066723,27.9789331 C15.8066723,34.7454988 21.3115593,40.2503858 28.078125,40.2503858 C34.8446907,40.2503858 40.3495777,34.7454988 40.3495777,27.9789331 C40.3495777,21.2123674 34.8446907,15.7074804 28.078125,15.7074804 Z M28.078125,38.1467569 C22.4715532,38.1467569 17.9103012,33.5855049 17.9103012,27.9789331 C17.9103012,22.3723613 22.4715532,17.8111093 28.078125,17.8111093 C33.6846968,17.8111093 38.2459488,22.3723613 38.2459488,27.9789331 C38.2459488,33.5855049 33.6846968,38.1467569 28.078125,38.1467569 Z M31.05188,21 C30.4710302,21 30,21.470899 30,22.05188 C30,22.6328611 30.470899,23.1037601 31.05188,23.1037601 C31.7092231,23.1037601 32.2440195,23.6385565 32.2440195,24.2958995 C32.2440195,24.8767493 32.7149185,25.3477796 33.2958995,25.3477796 C33.8768805,25.3477796 34.3477796,24.8768805 34.3477796,24.2958995 C34.3476484,22.4785626 32.869217,21 31.05188,21 Z" id="Combined-Shape"></path>
                    </g>
                </g>
            </g>
        </g>
    </g>
</svg>