<?xml version="1.0" encoding="UTF-8"?>
<svg width="74px" height="77px" viewBox="0 0 74 77" version="1.1" xmlns="http://www.w3.org/2000/svg" xmlns:xlink="http://www.w3.org/1999/xlink">
    <!-- Generator: Sketch 53.1 (72631) - https://sketchapp.com -->
    <title>Atoms / Icon/illustrated/ Camera_OFF Copy 9</title>
    <desc>Created with Sketch.</desc>
    <g id="UI-Kit" stroke="none" stroke-width="1" fill="none" fill-rule="evenodd">
        <g id="UI-Elements" transform="translate(-740.000000, -1411.000000)">
            <g id="Atoms-/-Icons-Copy" transform="translate(77.000000, 1395.000000)">
                <g id="Atoms-/-icons-/illustrated/sensors_OFF" transform="translate(650.000000, 4.000000)">
                    <rect id="Rectangle-5" x="0" y="0" width="100" height="100"></rect>
                    <g id="Icon/Two-color/Sensors" stroke-width="1" fill-rule="evenodd" transform="translate(13.000000, 12.000000)" fill="#44556B">
                        <path d="M3.82758621,0 L70.1724138,0 C72.269931,0 74,1.73006897 74,3.82758621 L74,72.7241379 C74,74.8216552 72.269931,76.5517241 70.1724138,76.5517241 L3.82758621,76.5517241 C1.73006897,76.5517241 0,74.8216552 0,72.7241379 L0,3.82758621 C0,1.73006897 1.73006897,0 3.82758621,0 Z M52.3103448,30.6206897 C51.6035172,30.6206897 51.0344828,31.1897241 51.0344828,31.8965517 C51.0344828,32.6033793 51.6035172,33.1724138 52.3103448,33.1724138 L57.4137931,33.1724138 C58.1206207,33.1724138 58.6896552,32.6033793 58.6896552,31.8965517 C58.6896552,31.1897241 58.1206207,30.6206897 57.4137931,30.6206897 L52.3103448,30.6206897 Z M54.862069,35.7241379 C54.1552414,35.7241379 53.5862069,36.2931724 53.5862069,37 L53.5862069,57.4137931 C53.5862069,58.1206207 54.1552414,58.6896552 54.862069,58.6896552 C55.5688966,58.6896552 56.137931,58.1206207 56.137931,57.4137931 L56.137931,37 C56.137931,36.2931724 55.5688966,35.7241379 54.862069,35.7241379 Z M54.862069,17.862069 C54.1552414,17.862069 53.5862069,18.4311034 53.5862069,19.137931 L53.5862069,26.7931034 C53.5862069,27.499931 54.1552414,28.0689655 54.862069,28.0689655 C55.5688966,28.0689655 56.137931,27.499931 56.137931,26.7931034 L56.137931,19.137931 C56.137931,18.4311034 55.5688966,17.862069 54.862069,17.862069 Z M16.5862069,30.6206897 C15.8793793,30.6206897 15.3103448,31.1897241 15.3103448,31.8965517 C15.3103448,32.6033793 15.8793793,33.1724138 16.5862069,33.1724138 L21.6896552,33.1724138 C22.3964828,33.1724138 22.9655172,32.6033793 22.9655172,31.8965517 C22.9655172,31.1897241 22.3964828,30.6206897 21.6896552,30.6206897 L16.5862069,30.6206897 Z M19.137931,35.7241379 C18.4311034,35.7241379 17.862069,36.2931724 17.862069,37 L17.862069,57.4137931 C17.862069,58.1206207 18.4311034,58.6896552 19.137931,58.6896552 C19.8447586,58.6896552 20.4137931,58.1206207 20.4137931,57.4137931 L20.4137931,37 C20.4137931,36.2931724 19.8447586,35.7241379 19.137931,35.7241379 Z M19.137931,17.862069 C18.4311034,17.862069 17.862069,18.4311034 17.862069,19.137931 L17.862069,26.7931034 C17.862069,27.499931 18.4311034,28.0689655 19.137931,28.0689655 C19.8447586,28.0689655 20.4137931,27.499931 20.4137931,26.7931034 L20.4137931,19.137931 C20.4137931,18.4311034 19.8447586,17.862069 19.137931,17.862069 Z M34.4482759,45.9310345 L39.5517241,45.9310345 C40.2585517,45.9310345 40.8275862,45.362 40.8275862,44.6551724 C40.8275862,43.9483448 40.2585517,43.3793103 39.5517241,43.3793103 L34.4482759,43.3793103 C33.7414483,43.3793103 33.1724138,43.9483448 33.1724138,44.6551724 C33.1724138,45.362 33.7414483,45.9310345 34.4482759,45.9310345 Z M37,40.8275862 C37.7068276,40.8275862 38.2758621,40.2585517 38.2758621,39.5517241 L38.2758621,19.137931 C38.2758621,18.4311034 37.7068276,17.862069 37,17.862069 C36.2931724,17.862069 35.7241379,18.4311034 35.7241379,19.137931 L35.7241379,39.5517241 C35.7241379,40.2585517 36.2931724,40.8275862 37,40.8275862 Z M37,58.6896552 C37.7068276,58.6896552 38.2758621,58.1206207 38.2758621,57.4137931 L38.2758621,49.7586207 C38.2758621,49.0517931 37.7068276,48.4827586 37,48.4827586 C36.2931724,48.4827586 35.7241379,49.0517931 35.7241379,49.7586207 L35.7241379,57.4137931 C35.7241379,58.1206207 36.2931724,58.6896552 37,58.6896552 Z" id="Shape"></path>
                    </g>
                </g>
            </g>
        </g>
    </g>
</svg>