<?xml version="1.0" encoding="UTF-8"?>
<svg width="59px" height="73px" viewBox="0 0 59 73" version="1.1" xmlns="http://www.w3.org/2000/svg" xmlns:xlink="http://www.w3.org/1999/xlink">
    <!-- Generator: Sketch 53.1 (72631) - https://sketchapp.com -->
    <title>Atoms / Icon/illustrated/ Camera_OFF Copy 4</title>
    <desc>Created with Sketch.</desc>
    <g id="UI-Kit" stroke="none" stroke-width="1" fill="none" fill-rule="evenodd">
        <g id="UI-Elements" transform="translate(-228.000000, -1409.000000)">
            <g id="Atoms-/-Icons-Copy" transform="translate(77.000000, 1395.000000)">
                <g id="Atoms-/-icons-/illustrated/-Outlet_OFF" transform="translate(130.000000, 0.000000)">
                    <rect id="Rectangle-5" x="0" y="0" width="100" height="100"></rect>
                    <path d="M59.7656925,79.1036891 L59.7656925,85.4861397 C59.7656925,86.1055336 59.2674702,86.6082301 58.6535893,86.6082301 L41.9631448,86.6082301 C41.3492639,86.6082301 40.8510417,86.1055336 40.8510417,85.4861397 L40.8510417,79.1036891 L37.0365278,79.1036891 C28.4221766,79.1036891 21.4137024,72.0345191 21.4137024,63.3428063 L21.4137024,44.2111638 C21.4137024,41.6034256 23.5155774,39.4826746 26.1001052,39.4826746 L27.0698591,39.4826746 L27.0698591,19.6104523 C27.0698591,16.5157268 29.5631944,14 32.630375,14 L32.9951448,14 C36.0623254,14 38.5556607,16.5157268 38.5556607,19.6104523 L38.5556607,39.4826746 L62.0588492,39.4826746 L62.0588492,19.6104523 C62.0588492,16.5157268 64.5521845,14 67.6193651,14 L67.9841349,14 C71.0513155,14 73.5446508,16.5157268 73.5446508,19.6104523 L73.5446508,39.4826746 L74.5188532,39.4826746 C77.1011567,39.4826746 79.2030317,41.6034256 79.2030317,44.2111638 L79.2030317,63.3428063 C79.2030317,72.0322749 72.1967817,79.1036891 63.5824306,79.1036891 L59.7656925,79.1036891 Z M46.9769091,67.8172716 C47.3101818,67.8172716 47.6434545,67.6813395 47.8727273,67.4273025 L55.5096364,59.0240247 C55.772,58.7365617 55.8618182,58.3421358 55.7436364,57.976679 C55.6278182,57.6134506 55.3229091,57.3304444 54.9352727,57.2279383 L52.4487273,56.5571914 L54.1552727,50.9772901 C54.3112727,50.4714444 54.0678182,49.9321728 53.5761818,49.684821 C53.0869091,49.4419259 52.4747273,49.5466605 52.1154545,49.95 L45.3152727,57.5666543 C45.0552727,57.8563457 44.9725455,58.2507716 45.0883636,58.6117716 C45.2065455,58.9727716 45.5114545,59.2535494 45.8967273,59.3560556 L48.3029091,60.0045185 L45.866,66.3220185 C45.6698182,66.8300926 45.8872727,67.3938765 46.3812727,67.6657407 C46.5656364,67.7682469 46.7712727,67.8172716 46.9769091,67.8172716 Z" id="Combined-Shape" fill="#44556B" fill-rule="nonzero"></path>
                </g>
            </g>
        </g>
    </g>
</svg>