<?xml version="1.0" encoding="UTF-8"?>
<svg width="66px" height="60px" viewBox="0 0 66 60" version="1.1" xmlns="http://www.w3.org/2000/svg" xmlns:xlink="http://www.w3.org/1999/xlink">
    <!-- Generator: Sketch 53.1 (72631) - https://sketchapp.com -->
    <title>Atoms / Icon/illustrated/ Camera_OFF Copy 2</title>
    <desc>Created with Sketch.</desc>
    <g id="UI-Kit" stroke="none" stroke-width="1" fill="none" fill-rule="evenodd">
        <g id="UI-Elements" transform="translate(-93.000000, -1547.000000)">
            <g id="Atoms-/-Icons-Copy" transform="translate(77.000000, 1395.000000)">
                <g id="Atoms-/-icons-/illustrated/-Light_OFF" transform="translate(0.000000, 132.000000)">
                    <rect id="Rectangle-5" x="0" y="0" width="100" height="100"></rect>
                    <g id="007-light" stroke-width="1" fill-rule="evenodd" transform="translate(16.000000, 20.000000)" fill="#44556B">
                        <path d="M40.3810205,43.0594059 L41.1230892,43.0594059 C42.7262493,43.0594059 44.0322581,44.4318362 44.0322581,46.1192605 L44.0322581,47.1777692 C44.0322581,48.8651935 42.7275602,50.2376238 41.1244002,50.2376238 L25.1672333,50.2376238 C23.562908,50.2376238 22.2580645,48.8639678 22.2580645,47.1777692 L22.2580645,46.1192605 C22.2580645,44.5040166 23.4536648,43.1773951 24.9630785,43.0668568 C24.2439922,43.0624485 23.7956915,43.0593794 23.7306484,43.0593794 C23.5639155,43.0605292 23.3948709,43.0243094 23.2339173,42.94957 C22.6467401,42.6750465 22.3930287,41.9798264 22.6678346,41.3957093 C22.6678346,41.3899601 23.9456384,38.0134642 18.7675275,30.8692406 C16.3025104,27.7064707 15,23.9153149 15,19.9056902 C15,10.0334787 23.0752754,2 33.0005057,2 C42.925736,2 51,10.0321851 51,19.9056902 C51,23.8895873 49.7128048,27.6597586 47.2794293,30.8095928 C42.0930829,37.9351316 43.4389381,41.3793241 43.4530973,41.4132443 C43.6985732,41.9973614 43.435615,42.6842451 42.8553729,42.9425272 C42.7300314,42.9983203 41.7870293,43.0354617 40.3810205,43.0594059 Z M26.9447715,51.960396 C27.6098899,51.960396 39.2609299,51.9616497 39.9261963,51.9616497 C40.5914627,51.9616497 41.1290323,52.4689831 41.1290323,53.0940256 L41.1290323,55.9803373 C41.1290323,56.4185775 40.8607654,56.817117 40.439795,57.0039193 L33.9399825,59.8913454 C33.777661,59.9637818 33.6020224,60 33.4263838,60 C33.2556282,60 33.0860562,59.9660106 32.927286,59.8980318 L26.4455257,57.1136883 C26.0173049,56.9291148 25.7419355,56.5270928 25.7419355,56.0832806 L25.7419355,53.0927719 C25.7419355,52.4677294 26.279653,51.960396 26.9447715,51.960396 Z M59.7998946,40.5361268 C59.5990904,40.8400302 59.2886191,41.0011187 58.9749965,40.9999942 C58.763982,40.9999942 58.5508245,40.9280244 58.3674158,40.7771972 L51.4162882,35.0619293 C50.9613589,34.6871807 50.8640452,33.971841 51.2001054,33.4645387 C51.5361656,32.956112 52.1766466,32.8487196 52.6325842,33.2234683 L59.5837118,38.9387362 C60.0386411,39.3134848 60.1359548,40.0288245 59.7998946,40.5361268 Z M13.2160378,7.78074766 L5.45492615,2.0303883 C4.95702014,1.66160172 4.85185005,0.957642647 5.21884409,0.457304668 C5.58583812,-0.0419266757 6.2863755,-0.149823724 6.78318025,0.220069491 L14.5453932,5.97042885 C15.0421979,6.33921543 15.1484693,7.04317451 14.7814752,7.54240585 C14.5609484,7.84147434 14.2230001,8 13.8795454,8 C13.6491073,8 13.416329,7.92917527 13.2160378,7.78074766 Z M13.2765285,33.2121553 C13.7564876,32.8560369 14.4320742,32.9583975 14.788885,33.4430025 C15.143435,33.9265356 15.0407671,34.6083589 14.560808,34.9655491 L6.72347148,40.787642 C6.52997178,40.9314023 6.30508655,41 6.08246215,41 C5.75052038,41 5.42296727,40.8464591 5.21111502,40.5567948 C4.85656504,40.0732616 4.95923293,39.3914383 5.43919199,39.0342481 L13.2765285,33.2121553 Z M51.4307058,5.87138302 L58.3108733,0.230809181 C58.7826018,-0.157135325 59.445265,-0.0439727544 59.7929642,0.479621757 C60.1406635,1.00321627 60.0399794,1.7415295 59.5692942,2.12831337 L52.6901701,7.77004785 C52.5004092,7.92455829 52.2798693,8 52.0615465,8 C51.7360186,8 51.4147946,7.83373807 51.2070358,7.52007463 C50.8593365,6.99648012 50.9600206,6.25816689 51.4307058,5.87138302 Z M64.8599314,19 C65.4903421,19 66,19.6720384 66,20.5 C66,21.3279616 65.4903421,22 64.8599314,22 L56.1400686,22 C55.5095177,22 55,21.3279616 55,20.5 C55,19.6720384 55.5096579,19 56.1400686,19 L64.8599314,19 Z M11,20.5 C11,21.3279616 10.5018156,21.9998155 9.88818146,22 L1.11195533,22 C0.496953343,22 0,21.3279616 0,20.5 C0,19.6720384 0.497090131,19 1.11195533,19 L9.88804467,19 C10.5030467,19 11,19.6720384 11,20.5 Z M35,8.22063603 C35,7.54687617 34.4544753,7 33.779364,7 C26.7330402,7 21,12.7330402 21,19.779364 C21,20.4531238 21.5455247,21 22.220636,21 C22.8955971,21 23.4412721,20.4531238 23.4412721,19.779364 C23.4412721,14.0793586 28.0795088,9.4411219 33.7795141,9.4411219 C34.4544753,9.4411219 35,8.89559715 35,8.22063603 Z" id="Combined-Shape"></path>
                    </g>
                </g>
            </g>
        </g>
    </g>
</svg>