<?xml version="1.0" encoding="UTF-8"?>
<svg width="74px" height="86px" viewBox="0 0 74 86" version="1.1" xmlns="http://www.w3.org/2000/svg" xmlns:xlink="http://www.w3.org/1999/xlink">
    <!-- Generator: Sketch 53.1 (72631) - https://sketchapp.com -->
    <title>Atoms / Icon/illustrated/ Camera_OFF Copy 8</title>
    <desc>Created with Sketch.</desc>
    <g id="UI-Kit" stroke="none" stroke-width="1" fill="none" fill-rule="evenodd">
        <g id="UI-Elements" transform="translate(-350.000000, -1404.000000)">
            <g id="Atoms-/-Icons-Copy" transform="translate(77.000000, 1395.000000)">
                <g id="Atoms-/-icons-/illustrated/Alerts_OFF" transform="translate(260.000000, 2.000000)">
                    <rect id="Rectangle-5" x="0" y="0" width="100" height="100"></rect>
                    <g id="Icon/Two-color/Alert" stroke-width="1" fill-rule="evenodd" transform="translate(13.000000, 7.000000)" fill="#44556B">
                        <path d="M32.7307692,76.8461538 C31.9452308,76.8575385 31.2963077,77.4836923 31.3076923,78.2692308 L31.3076923,79.6923077 C31.3076923,82.8230769 33.8692308,85.3846154 37,85.3846154 C40.1307692,85.3846154 42.6923077,82.8230769 42.6923077,79.6923077 L42.6923077,78.2692308 C42.6923077,77.3214615 41.9807692,76.8461538 41.2692308,76.8461538 C40.5576923,76.8461538 39.8461538,77.3072308 39.8461538,78.2692308 L39.8461538,79.6923077 C39.8461538,81.2946923 38.6023846,82.5384615 37,82.5384615 C35.3976154,82.5384615 34.1538462,81.2946923 34.1538462,79.6923077 L34.1538462,78.2692308 C34.1652308,77.4666154 33.5333846,76.8347692 32.7307692,76.8461538 Z M37,0 C32.3038462,0 28.4615385,3.84230769 28.4615385,8.53846154 L28.4615385,9.96153846 C28.4615385,11.8115385 31.3076923,11.84 31.3076923,9.96153846 L31.3076923,8.53846154 C31.3076923,5.37923077 33.8407692,2.84615385 37,2.84615385 C40.1592308,2.84615385 42.6923077,5.37923077 42.6923077,8.53846154 L42.6923077,9.96153846 C42.6923077,11.8229231 45.5384615,11.84 45.5384615,9.96153846 L45.5384615,8.53846154 C45.5384615,3.84230769 41.6961538,0 37,0 Z M37,14.2307692 C49.2953846,14.2307692 56.0350769,19.3823077 59.3081538,25.9056923 C62.5783846,32.4290769 62.6153846,40.1193846 62.6153846,45.5384615 C62.6153846,51.2307692 62.6153846,62.0945385 70.8123077,71.6490769 C71.1752272,72.0711187 71.2587701,72.6660109 71.0261338,73.1716888 C70.7934974,73.6773668 70.287392,74.0009921 69.7307692,74 L4.26923077,74 C3.71260804,74.0009921 3.20650259,73.6773668 2.97386625,73.1716888 C2.74122991,72.6660109 2.82477283,72.0711187 3.18769231,71.6490769 C11.3846154,62.0945385 11.3846154,51.2307692 11.3846154,45.5384615 C11.3846154,40.1193846 11.4187692,32.4290769 14.6918462,25.9056923 C17.9649231,19.3823077 24.7046154,14.2307692 37,14.2307692 Z" id="Shape"></path>
                        <path d="M58.3461538,8.53846154 C66.9813846,8.53846154 74,15.5627692 74,24.1923077 C74,26.085 71.1538462,26.085 71.1538462,24.1923077 C71.1538462,17.1053846 65.4444615,11.3846154 58.3461538,11.3846154 C56.4477692,11.3846154 56.4591538,8.53846154 58.3461538,8.53846154 Z M15.6538462,8.53846154 C17.5465385,8.53846154 17.5550769,11.3846154 15.6538462,11.3846154 C8.56692308,11.3846154 2.84615385,17.1053846 2.84615385,24.1923077 C2.84615385,26.085 0,26.085 0,24.1923077 C0,15.5627692 7.02430769,8.53846154 15.6538462,8.53846154 Z" id="Combined-Shape"></path>
                    </g>
                </g>
            </g>
        </g>
    </g>
</svg>