<?xml version="1.0" encoding="UTF-8"?>
<svg width="8px" height="16px" viewBox="0 0 8 16" version="1.1" xmlns="http://www.w3.org/2000/svg" xmlns:xlink="http://www.w3.org/1999/xlink">
    <!-- Generator: Sketch 53.1 (72631) - https://sketchapp.com -->
    <title>Battery Copy 3</title>
    <desc>Created with Sketch.</desc>
    <g id="UI-Kit" stroke="none" stroke-width="1" fill="none" fill-rule="evenodd">
        <g id="UI-Elements" transform="translate(-1064.000000, -566.000000)" fill="#FFAB4F">
            <g id="Atoms-/-icons-/-Battery_warning" transform="translate(1059.000000, 565.000000)">
                <path d="M11.7525,3 L10.5,3 L10.5,1.5 L7.5,1.5 L7.5,3 L6.2475,3 C5.7,3 5.25,3.45 5.25,3.9975 L5.25,15.495 C5.25,16.05 5.7,16.5 6.2475,16.5 L11.745,16.5 C12.3,16.5 12.75,16.05 12.75,15.5025 L12.75,3.9975 C12.75,3.45 12.3,3 11.7525,3 L11.7525,3 Z M9.75,13.5 L8.25,13.5 L8.25,12 L9.75,12 L9.75,13.5 L9.75,13.5 Z M9.75,10.5 L8.25,10.5 L8.25,6.75 L9.75,6.75 L9.75,10.5 L9.75,10.5 Z" id="Shape"></path>
            </g>
        </g>
    </g>
</svg>