<?xml version="1.0" encoding="UTF-8"?>
<svg width="16px" height="16px" viewBox="0 0 16 16" version="1.1" xmlns="http://www.w3.org/2000/svg" xmlns:xlink="http://www.w3.org/1999/xlink">
    <!-- Generator: Sketch 53.1 (72631) - https://sketchapp.com -->
    <title>Atoms / Icon/System/ Chart_Bar Copy</title>
    <desc>Created with Sketch.</desc>
    <defs>
        <path d="M19.9620591,12.7841345 C19.5680404,16.8343944 16.1537036,20 12,20 C7.581722,20 4,16.418278 4,12 C4,7.92038235 7.05368842,4.55399184 11,4.06189375 L11,7.10001812 C8.71775968,7.56328845 7,9.58104209 7,12 C7,14.7614237 9.23857625,17 12,17 C14.1822331,17 16.0379451,15.6019972 16.7203906,13.652737 L19.9620591,12.7841345 Z M19.8997947,10.7302659 L16.9766366,11.5135237 C16.7643021,9.31438993 15.1273908,7.53185565 13,7.10001812 L13,4.06189375 C16.528329,4.50187016 19.3431094,7.23950971 19.8997947,10.7302659 Z" id="path-1"></path>
    </defs>
    <g id="UI-Kit" stroke="none" stroke-width="1" fill="none" fill-rule="evenodd">
        <g id="UI-Elements" transform="translate(-653.000000, -610.000000)">
            <g id="Group-6" transform="translate(77.000000, 562.000000)">
                <g id="Group-5">
                    <g id="Atoms-/-icons-/System/-Chart_Donnut" transform="translate(572.000000, 44.000000)">
                        <mask id="mask-2" fill="white">
                            <use xlink:href="#path-1"></use>
                        </mask>
                        <use id="Mask" fill="#44556B" fill-rule="evenodd" xlink:href="#path-1"></use>
                        <g id="Atoms-/-Colors-/-Gray_Medium" mask="url(#mask-2)" fill="#657D95" fill-rule="evenodd">
                            <rect id="Rectangle-Copy-3" x="0" y="0" width="24" height="24"></rect>
                        </g>
                    </g>
                </g>
            </g>
        </g>
    </g>
</svg>