<?xml version="1.0" encoding="UTF-8"?>
<svg width="16px" height="16px" viewBox="0 0 16 16" version="1.1" xmlns="http://www.w3.org/2000/svg" xmlns:xlink="http://www.w3.org/1999/xlink">
    <!-- Generator: Sketch 53.1 (72631) - https://sketchapp.com -->
    <title>Atoms / Icon/System/ Chart_Bar Copy 4</title>
    <desc>Created with Sketch.</desc>
    <defs>
        <path d="M5,4 L10,4 C10.5522847,4 11,4.44771525 11,5 L11,13 C11,13.5522847 10.5522847,14 10,14 L5,14 C4.44771525,14 4,13.5522847 4,13 L4,5 C4,4.44771525 4.44771525,4 5,4 Z M5,16 L10,16 C10.5522847,16 11,16.4477153 11,17 L11,19 C11,19.5522847 10.5522847,20 10,20 L5,20 C4.44771525,20 4,19.5522847 4,19 L4,17 C4,16.4477153 4.44771525,16 5,16 Z M14,4 L19,4 C19.5522847,4 20,4.44771525 20,5 L20,7 C20,7.55228475 19.5522847,8 19,8 L14,8 C13.4477153,8 13,7.55228475 13,7 L13,5 C13,4.44771525 13.4477153,4 14,4 Z M14,10 L19,10 C19.5522847,10 20,10.4477153 20,11 L20,19 C20,19.5522847 19.5522847,20 19,20 L14,20 C13.4477153,20 13,19.5522847 13,19 L13,11 C13,10.4477153 13.4477153,10 14,10 Z" id="path-1"></path>
    </defs>
    <g id="UI-Kit" stroke="none" stroke-width="1" fill="none" fill-rule="evenodd">
        <g id="UI-Elements" transform="translate(-785.000000, -610.000000)">
            <g id="Group-6" transform="translate(77.000000, 562.000000)">
                <g id="Group-5">
                    <g id="Atoms-/-icons-/System/-View_flex-_default" transform="translate(704.000000, 44.000000)">
                        <mask id="mask-2" fill="white">
                            <use xlink:href="#path-1"></use>
                        </mask>
                        <use id="Mask" fill="#44556B" fill-rule="evenodd" xlink:href="#path-1"></use>
                        <g id="Atoms-/-Colors-/-Gray_Medium" mask="url(#mask-2)" fill="#657D95" fill-rule="evenodd">
                            <rect id="Rectangle-Copy-3" x="0" y="0" width="24" height="24"></rect>
                        </g>
                    </g>
                </g>
            </g>
        </g>
    </g>
</svg>